<?xml version="1.0" standalone="no"?>
<!DOCTYPE svg PUBLIC "-//W3C//DTD SVG 20010904//EN"
 "http://www.w3.org/TR/2001/REC-SVG-20010904/DTD/svg10.dtd">
<svg version="1.0" xmlns="http://www.w3.org/2000/svg"
 width="600.000000pt" height="300.000000pt" viewBox="0 0 600.000000 300.000000"
 preserveAspectRatio="xMidYMid meet">

<g transform="translate(0.000000,300.000000) scale(0.100000,-0.100000)"
fill="#000000" stroke="none">
<path d="M2295 2078 c-18 -49 -55 -163 -55 -170 0 -4 40 -8 90 -8 l89 0 25 78
c13 42 27 85 31 95 7 15 -1 17 -84 17 -64 0 -93 -4 -96 -12z"/>
<path d="M3250 1996 l-95 -96 281 0 c259 0 282 -1 297 -18 37 -41 8 -113 -56
-143 -37 -16 -67 -19 -254 -19 l-212 0 -80 -70 -79 -70 -33 -103 c-17 -56 -34
-108 -37 -114 -3 -10 18 -13 86 -13 l91 0 29 93 28 92 210 5 c183 5 216 8 262
27 157 64 260 210 250 354 -5 70 -26 103 -89 139 -43 24 -50 25 -274 28 l-230
3 -95 -95z"/>
<path d="M2207 1813 c-6 -11 -147 -449 -147 -457 0 -3 40 -6 89 -6 l89 0 71
220 c39 120 74 226 77 235 5 13 -7 15 -84 15 -50 0 -93 -3 -95 -7z"/>
<path d="M2101 1052 c-18 -59 -36 -115 -39 -125 -4 -15 0 -18 24 -15 27 3 30
10 66 118 21 63 38 118 38 122 0 5 -12 8 -27 8 -27 0 -30 -5 -62 -108z"/>
<path d="M2233 1148 c-6 -7 -25 -60 -43 -118 -18 -58 -35 -108 -37 -112 -2 -5
9 -8 26 -8 28 0 31 4 53 72 l24 72 47 -72 c48 -73 77 -91 92 -54 14 35 75 216
75 224 0 4 -13 8 -28 8 -26 0 -30 -5 -51 -71 l-23 -72 -46 72 c-46 69 -69 84
-89 59z"/>
<path d="M2514 1141 c-33 -20 -60 -71 -50 -96 8 -23 50 -35 122 -35 48 0 64
-3 64 -14 0 -21 -23 -26 -109 -26 -73 0 -79 -2 -106 -30 l-29 -30 102 0 c146
0 202 29 202 106 0 44 -15 53 -100 56 -99 4 -93 22 8 26 73 3 81 5 107 32 l29
30 -105 0 c-84 0 -110 -4 -135 -19z"/>
<path d="M2745 1130 l-29 -30 42 0 c23 0 42 -1 42 -3 0 -2 -13 -43 -30 -92
-16 -49 -30 -90 -30 -92 0 -2 13 -3 29 -3 28 0 31 4 61 95 31 94 32 95 64 95
23 0 41 9 61 30 l29 30 -105 0 c-104 0 -106 0 -134 -30z"/>
<path d="M2971 1078 c-43 -46 -95 -102 -116 -125 l-37 -43 35 0 c30 0 44 10
106 75 39 41 73 75 75 75 6 0 26 -60 26 -76 0 -10 -14 -14 -43 -14 -35 0 -49
-6 -72 -30 l-29 -30 126 0 125 0 9 33 10 32 84 5 c116 7 160 40 160 120 0 45
-31 60 -120 60 -71 0 -78 -2 -105 -30 l-28 -29 94 -3 c84 -3 94 -5 97 -22 7
-34 -25 -46 -124 -46 -76 0 -95 -3 -102 -16 -8 -14 -10 -11 -16 12 -25 107
-37 134 -57 134 -13 0 -50 -31 -98 -82z"/>
<path d="M3473 1073 c-46 -49 -97 -105 -114 -125 l-31 -38 34 0 c29 0 43 11
107 81 l75 81 13 -43 c18 -60 18 -59 -30 -59 -35 0 -49 -6 -72 -30 l-29 -30
116 0 116 0 -14 58 c-8 31 -19 80 -25 107 -15 65 -26 85 -47 85 -9 0 -54 -39
-99 -87z"/>
<path d="M3640 1157 c0 -1 16 -40 35 -85 33 -78 34 -83 20 -122 l-14 -40 29 0
c25 0 31 5 41 40 9 28 36 63 99 125 l87 85 -36 0 c-31 0 -45 -8 -86 -50 -27
-27 -52 -50 -55 -50 -3 0 -14 23 -25 50 -19 48 -21 50 -57 50 -21 0 -38 -1
-38 -3z"/>
</g>
</svg>
