<svg width="148" height="144" viewBox="0 0 148 144" fill="none" xmlns="http://www.w3.org/2000/svg">
<g clip-path="url(#clip0_345_6985)">
<path d="M53.5095 144C53.3448 143.999 53.1815 143.97 53.0267 143.914C52.8542 143.851 52.6958 143.755 52.5607 143.631C52.4257 143.507 52.3165 143.358 52.2397 143.191C52.1628 143.025 52.1196 142.845 52.1128 142.662C52.1059 142.479 52.1353 142.297 52.1995 142.126L70.2369 93.3326C71.2808 90.4728 73.9556 85.5046 79.9655 84.1969L106.364 78.9297C108.016 78.4903 109.436 78.0484 110.719 77.3698C112.243 76.5691 113.634 75.3914 114.981 74.2501C117.217 72.36 119.981 70.0384 122.744 67.7168C125.508 65.3952 128.298 63.0528 130.544 61.1523C130.852 60.8923 131.432 60.4036 131.473 60.076C131.492 59.9174 131.387 59.6028 131.032 59.1947C129.341 57.2448 126.171 57.1642 123.94 57.913C121.481 58.7397 119.391 60.3958 117.176 62.148L116.56 62.655C115.261 63.7266 113.887 64.7032 112.447 65.5772C109.636 67.3658 101.314 70.574 83.9112 62.3456C74.4071 57.8506 56.8446 52.8902 46.0122 70.1632L15.3809 122.692C15.2887 122.85 15.1661 122.989 15.0203 123.099C14.8744 123.21 14.708 123.292 14.5306 123.338C14.3532 123.385 14.1683 123.397 13.9865 123.372C13.8046 123.348 13.6293 123.288 13.4706 123.196C13.1502 123.011 12.9168 122.706 12.8219 122.349C12.7749 122.173 12.7633 121.988 12.7877 121.807C12.8122 121.626 12.8722 121.451 12.9644 121.293L43.6192 68.7203C52.5205 54.5254 67.2516 51.3797 85.1116 59.8238C101.706 67.6726 109.052 64.4307 110.907 63.2503L111.056 63.1594C112.355 62.3696 113.593 61.4859 114.762 60.5154L115.44 59.9824C117.744 58.1626 120.137 56.2699 123.05 55.2898C126.241 54.2161 130.602 54.45 133.149 57.3852C134 58.3627 134.378 59.4208 134.247 60.44C134.067 61.8387 132.995 62.746 132.353 63.2997C130.106 65.2002 127.327 67.5348 124.548 69.8694C121.768 72.204 119.026 74.5075 116.792 76.3975C115.331 77.6298 113.82 78.9089 112.022 79.85C110.338 80.734 108.546 81.2435 106.998 81.6517L80.537 86.9215C75.8528 87.9406 73.7155 91.9781 72.8596 94.2945L54.8221 143.087C54.7233 143.355 54.5445 143.586 54.3098 143.749C54.0751 143.912 53.7957 144 53.5095 144Z" fill="#56584B"/>
<path d="M96.1527 53.873C96.0563 53.8738 95.96 53.8642 95.8656 53.8444C95.686 53.8072 95.5155 53.7352 95.3639 53.6324C95.2122 53.5295 95.0824 53.398 94.9819 53.2451C94.8813 53.0923 94.8119 52.9212 94.7777 52.7417C94.7436 52.5621 94.7452 52.3776 94.7827 52.1987C95.0593 50.8702 95.6282 48.5408 96.5259 45.0753C96.6306 44.7312 96.8648 44.4408 97.1795 44.2648C97.4942 44.0887 97.865 44.0407 98.2144 44.1306C98.5638 44.2206 98.8648 44.4416 99.0544 44.7475C99.2441 45.0534 99.3077 45.4205 99.232 45.772C98.3474 49.1933 97.7863 51.4916 97.5175 52.7655C97.4527 53.0783 97.2815 53.3593 97.0329 53.5611C96.7842 53.7628 96.4734 53.873 96.1527 53.873Z" fill="#56584B"/>
<path d="M100.68 36.2489C100.558 36.2488 100.436 36.233 100.318 36.2022C99.9596 36.1065 99.6543 35.8731 99.4688 35.5533C99.2834 35.2335 99.2329 34.8535 99.3286 34.4967L100.427 30.4176C101.672 25.79 102.745 21.7941 103.233 19.8442C103.334 19.4309 103.478 18.9213 103.642 18.3468C104.368 15.7834 105.73 11.0127 104.621 9.0837C104.529 8.91343 104.402 8.76459 104.248 8.64712C104.095 8.52966 103.917 8.44628 103.728 8.40255C102.003 7.8826 100.539 9.1123 99.3416 12.0059C98.2613 14.6057 96.0066 20.6554 95.0358 23.5438C94.9164 23.8947 94.662 24.1841 94.3285 24.3481C93.9949 24.5122 93.6097 24.5375 93.2574 24.4186C92.9051 24.2996 92.6147 24.0462 92.45 23.7139C92.2853 23.3816 92.2599 22.9978 92.3793 22.6468C93.2822 19.9612 95.5656 13.8075 96.7529 10.9322C99.1642 5.12161 102.635 5.16841 104.49 5.71957C105.03 5.86201 105.534 6.11133 105.975 6.4526C106.415 6.79388 106.782 7.22011 107.053 7.70581C108.726 10.6462 107.285 15.7314 106.333 19.0955C106.179 19.6415 106.04 20.1224 105.944 20.5124C105.451 22.483 104.378 26.4919 103.126 31.1326L102.035 35.2142C101.955 35.5114 101.779 35.7741 101.534 35.9612C101.289 36.1484 100.989 36.2496 100.68 36.2489Z" fill="#56584B"/>
<path d="M122.953 57.9494H122.82C122.637 57.9324 122.46 57.8798 122.298 57.7944C122.135 57.709 121.992 57.5926 121.874 57.4519C121.757 57.3111 121.669 57.1487 121.615 56.974C121.561 56.7993 121.542 56.6157 121.56 56.4337C122.77 43.6479 123.298 30.6568 123.809 18.092L123.848 17.1404C123.911 15.6222 123.519 13.5917 122.512 12.7208C122.294 12.5358 122.034 12.4056 121.755 12.3414C121.476 12.2772 121.185 12.2807 120.907 12.3516C119.642 12.5752 118.517 13.7815 118.17 15.2868C118.129 15.4648 118.053 15.6331 117.947 15.782C117.841 15.9309 117.706 16.0574 117.551 16.1545C117.395 16.2515 117.222 16.3172 117.042 16.3476C116.861 16.378 116.676 16.3727 116.497 16.3319C116.318 16.2911 116.149 16.2156 116 16.1098C115.851 16.004 115.723 15.8699 115.626 15.7151C115.529 15.5604 115.463 15.388 115.432 15.2079C115.402 15.0278 115.407 14.8435 115.448 14.6654C116.046 12.0656 118.042 10.03 120.406 9.60884C121.096 9.46469 121.81 9.4812 122.492 9.65707C123.174 9.83295 123.806 10.1634 124.339 10.6228C126.166 12.2086 126.719 15.0892 126.63 17.2574L126.601 18.1986C126.079 30.7998 125.558 43.8299 124.341 56.6911C124.308 57.0352 124.148 57.3547 123.891 57.5873C123.635 57.82 123.3 57.949 122.953 57.9494Z" fill="#56584B"/>
<path d="M109.952 54.6633C109.865 54.6629 109.777 54.6542 109.691 54.6373C109.328 54.5662 109.007 54.3544 108.8 54.0483C108.594 53.7423 108.517 53.3669 108.587 53.0046C109.97 45.9852 111.283 38.8305 112.502 31.7617L113.068 28.4625C114.013 23.003 114.895 17.8424 115.571 12.4322C115.633 11.9123 115.709 11.3923 115.785 10.8723C116.14 8.43633 116.476 6.13291 115.542 4.04528C115.427 3.77073 115.252 3.52465 115.032 3.32434C114.811 3.12402 114.548 2.97433 114.263 2.88577C113.91 2.78166 113.538 2.75331 113.173 2.80261C112.808 2.8519 112.457 2.97771 112.144 3.17175C109.814 4.55484 108.298 11.1817 107.392 15.1308C107.11 16.3709 106.87 17.442 106.63 18.2506C106.579 18.426 106.493 18.5897 106.378 18.7322C106.263 18.8748 106.121 18.9934 105.961 19.0812C105.8 19.1691 105.623 19.2246 105.441 19.2444C105.258 19.2642 105.074 19.2481 104.897 19.1969C104.721 19.1457 104.557 19.0604 104.414 18.9459C104.271 18.8315 104.152 18.69 104.064 18.5297C103.975 18.3694 103.92 18.1934 103.9 18.0117C103.88 17.83 103.896 17.6461 103.948 17.4706C104.159 16.7401 104.394 15.7054 104.668 14.5094C105.782 9.57244 107.332 2.77918 110.693 0.779937C111.346 0.387294 112.074 0.136179 112.83 0.0429981C113.586 -0.050183 114.354 0.0166667 115.083 0.23918C115.744 0.447333 116.353 0.7946 116.868 1.25748C117.383 1.72037 117.792 2.28806 118.068 2.92217C119.328 5.74554 118.9 8.68591 118.522 11.2805C118.449 11.7771 118.376 12.2762 118.316 12.7702C117.64 18.248 116.703 23.6893 115.795 28.9357L115.237 32.2374C114.026 39.3297 112.708 46.4999 111.322 53.5558C111.256 53.8688 111.084 54.1497 110.834 54.3513C110.585 54.5529 110.273 54.663 109.952 54.6633Z" fill="#56584B"/>
<path d="M83.0292 50.2723C82.8002 50.2716 82.5749 50.215 82.373 50.1074C82.1712 49.9998 81.9989 49.8444 81.8714 49.655C81.7438 49.4656 81.6649 49.2479 81.6416 49.021C81.6182 48.794 81.6511 48.5649 81.7374 48.3536C82.3254 46.9203 82.9256 45.4912 83.538 44.0666C83.61 43.8984 83.7145 43.746 83.8456 43.6181C83.9766 43.4902 84.1317 43.3893 84.302 43.3211C84.4722 43.2529 84.6542 43.2188 84.8377 43.2207C85.0212 43.2225 85.2025 43.2604 85.3713 43.3321C85.54 43.4038 85.693 43.5079 85.8214 43.6385C85.9498 43.7691 86.0511 43.9236 86.1195 44.0932C86.188 44.2628 86.2222 44.4441 86.2204 44.6269C86.2185 44.8097 86.1804 44.9903 86.1085 45.1585C85.503 46.571 84.9081 47.9879 84.3235 49.4091C84.218 49.6646 84.0386 49.8831 83.8081 50.0368C83.5776 50.1905 83.3065 50.2724 83.0292 50.2723Z" fill="#56584B"/>
<path d="M79.133 33.9767C78.8883 33.9773 78.6477 33.9138 78.4354 33.7925C78.2231 33.6713 78.0466 33.4966 77.9234 33.2859C77.8002 33.0753 77.7348 32.8361 77.7337 32.5923C77.7325 32.3485 77.7957 32.1087 77.9169 31.8969C81.0876 26.2839 83.658 21.8695 86.7295 17.2081C88.7833 14.0883 91.3981 13.0666 93.9085 14.4315C96.1736 15.6638 96.8312 18.2688 95.7117 21.5809C94.5922 24.893 93.2613 28.369 91.5103 32.578C91.3577 32.9034 91.0849 33.1576 90.7487 33.2874C90.4126 33.4173 90.0392 33.4128 89.7062 33.275C89.3733 33.1372 89.1067 32.8766 88.962 32.5477C88.8172 32.2187 88.8055 31.8468 88.9294 31.5095C90.6569 27.3498 91.9696 23.9259 93.063 20.6918C93.4414 19.5739 93.8824 17.5876 92.5698 16.8753C91.4529 16.2669 90.2759 16.8935 89.0677 18.7315C86.051 23.3332 83.5067 27.706 80.3517 33.2774C80.2288 33.491 80.0513 33.6682 79.8372 33.7911C79.6231 33.914 79.3801 33.978 79.133 33.9767Z" fill="#56584B"/>
<path d="M49.4803 64.9949C49.2226 64.994 48.97 64.9221 48.7507 64.7872C48.5313 64.6523 48.3536 64.4596 48.2373 64.2304C48.1209 64.0013 48.0704 63.7445 48.0913 63.4885C48.1121 63.2326 48.2036 62.9873 48.3556 62.7799C52.5127 57.1409 59.3785 53.1294 63.1024 51.2394C63.4442 51.0652 63.7887 50.8962 64.1462 50.7194C64.9969 50.3009 65.8033 49.9083 66.5522 49.4507C66.7089 49.3479 66.8848 49.2775 67.0694 49.2437C67.254 49.21 67.4435 49.2136 67.6266 49.2543C67.8098 49.295 67.9828 49.3721 68.1354 49.4808C68.2881 49.5895 68.4172 49.7278 68.5151 49.8873C68.613 50.0467 68.6777 50.2242 68.7054 50.4091C68.733 50.5941 68.723 50.7826 68.676 50.9636C68.6289 51.1446 68.5458 51.3143 68.4316 51.4626C68.3173 51.6109 68.1743 51.7348 68.011 51.8269C67.1498 52.3469 66.2495 52.7915 65.3779 53.2178C65.0439 53.3816 64.7099 53.5454 64.3811 53.7118C60.879 55.4901 54.4333 59.2442 50.6181 64.4203C50.4878 64.5991 50.3166 64.7445 50.1188 64.8444C49.921 64.9443 49.7021 64.9959 49.4803 64.9949Z" fill="#56584B"/>
<path d="M20.9236 47.6464C14.3997 47.6464 7.84961 47.3734 1.28129 46.8223C1.09846 46.8071 0.920426 46.7562 0.757351 46.6724C0.594275 46.5887 0.449353 46.4738 0.330857 46.3342C0.212361 46.1947 0.122613 46.0333 0.0667373 45.8592C0.0108611 45.6851 -0.0100489 45.5017 0.00520105 45.3196C0.020451 45.1374 0.0715623 44.9601 0.155617 44.7976C0.239671 44.6351 0.355022 44.4908 0.495085 44.3727C0.635147 44.2547 0.797177 44.1653 0.971924 44.1096C1.14667 44.0539 1.33071 44.0331 1.51354 44.0483C14.022 45.1086 26.5971 45.1347 39.1098 44.1263C41.9073 43.8949 43.6088 42.647 45.7617 41.0689C46.5445 40.4866 47.3796 39.8808 48.3112 39.2959C52.0299 36.956 55.665 34.3199 59.1775 31.7695C62.7553 29.1697 66.4557 26.4893 70.2865 24.0845C75.2291 20.9855 80.5318 18.3155 85.8397 19.7584C86.0235 19.8004 86.1969 19.8791 86.3494 19.9896C86.502 20.1001 86.6305 20.2402 86.7273 20.4015C86.8241 20.5627 86.8871 20.7418 86.9126 20.928C86.9382 21.1142 86.9256 21.3036 86.8758 21.4848C86.826 21.666 86.7399 21.8353 86.6227 21.9825C86.5055 22.1297 86.3596 22.2518 86.1938 22.3414C86.028 22.431 85.8458 22.4863 85.658 22.5039C85.4702 22.5216 85.2808 22.5012 85.1011 22.444C80.6231 21.2221 75.8763 23.8635 71.7766 26.4347C68.0266 28.7901 64.3628 31.4471 60.8164 34.0157C57.2699 36.5843 53.6009 39.2569 49.8039 41.6487C48.9558 42.1816 48.1729 42.7562 47.4187 43.3099C45.211 44.9296 42.9277 46.6039 39.329 46.9003C33.2774 47.3994 27.1214 47.6464 20.9236 47.6464Z" fill="#56584B"/>
<path d="M62.082 54.7387C61.776 54.734 61.48 54.6295 61.2394 54.4412C60.9987 54.2528 60.8267 53.9911 60.7497 53.696C60.6727 53.401 60.695 53.0889 60.8131 52.8076C60.9311 52.5264 61.1386 52.2915 61.4035 52.1389C66.5235 49.3103 72.0454 47.0979 77.382 44.9557L80.1847 43.8274C82.6403 42.8316 86.419 43.1852 90.7953 43.596C99.1459 44.3759 105.132 44.5787 105.931 39.9563C106.192 38.3964 104.579 37.5021 103.582 37.2135C102.249 36.8287 100.913 36.4101 99.5687 35.989C95.8318 34.8165 91.967 33.6024 88.1335 33.176C85.049 32.8354 81.4295 33.5582 77.93 34.2601C76.9853 34.4499 76.0642 34.6345 75.1795 34.7801C74.8148 34.8449 74.4391 34.7627 74.1352 34.5516C73.8313 34.3405 73.624 34.0177 73.559 33.6544C73.4939 33.291 73.5764 32.9168 73.7883 32.614C74.0002 32.3112 74.3242 32.1047 74.6889 32.0399C75.5527 31.8865 76.4556 31.7045 77.3794 31.5199C80.9154 30.8102 84.9211 30.0069 88.444 30.3994C92.5463 30.857 96.5337 32.1101 100.409 33.3216C101.729 33.735 103.047 34.1483 104.357 34.5279C106.816 35.235 109.219 37.3877 108.689 40.4242C107.384 47.9454 98.0316 47.0693 90.5265 46.3648C86.8522 46.019 83.0552 45.6628 81.2337 46.4038L78.4206 47.5347C73.1623 49.6457 67.7213 51.8269 62.7631 54.5723C62.5539 54.6843 62.3195 54.7415 62.082 54.7387Z" fill="#56584B"/>
<path d="M139.047 54.7387C138.366 54.7355 137.688 54.6711 137.019 54.5463C132.81 53.7663 124.357 51.2679 124 51.1665C123.645 51.061 123.346 50.8194 123.17 50.4946C122.994 50.1699 122.954 49.7888 123.06 49.4351C123.166 49.0814 123.409 48.784 123.735 48.6085C124.061 48.433 124.443 48.3937 124.798 48.4992C124.884 48.5251 133.465 51.0703 137.523 51.8139C139.281 52.1363 140.881 51.9049 141.698 51.2107C142.22 50.7792 142.455 50.137 142.442 49.2505C142.41 47.1109 140.946 46.1931 138.559 44.8724C138.175 44.6593 137.794 44.4487 137.421 44.2277C134.172 42.3116 123.901 37.5124 123.799 37.4682C123.463 37.3117 123.204 37.0289 123.078 36.682C122.952 36.3351 122.97 35.9525 123.127 35.6185C123.284 35.2844 123.568 35.0262 123.916 34.9007C124.264 34.7751 124.648 34.7925 124.983 34.949C125.411 35.1466 135.479 39.8548 138.843 41.8385C139.195 42.0439 139.555 42.244 139.916 42.4416C142.264 43.7415 145.182 45.356 145.236 49.2167C145.268 51.3927 144.31 52.6614 143.501 53.3426C142.413 54.2551 140.847 54.7387 139.047 54.7387Z" fill="#56584B"/>
<path d="M141.607 66.5548C141.001 66.5492 140.397 66.5032 139.798 66.417L138.699 66.2688C135.798 65.8762 132.507 65.4316 129.501 65.1223C129.132 65.0843 128.794 64.9021 128.56 64.6157C128.326 64.3292 128.217 63.962 128.255 63.5949C128.293 63.2277 128.476 62.8907 128.763 62.6579C129.051 62.425 129.419 62.3156 129.788 62.3535C132.838 62.6681 136.152 63.1152 139.075 63.5104L140.174 63.6586C141.15 63.7886 142.282 63.8744 143.266 63.5078C143.707 63.3444 144.104 63.0804 144.425 62.7369C144.745 62.3933 144.98 61.9797 145.111 61.5293C145.471 60.1801 144.769 58.6514 143.968 57.8038C143.292 57.1565 138.799 55.3678 135.023 54.0835C134.679 53.9579 134.399 53.7035 134.242 53.3747C134.085 53.0459 134.063 52.6689 134.182 52.3244C134.3 51.9798 134.549 51.6952 134.875 51.5312C135.202 51.3673 135.58 51.3372 135.928 51.4473C138.538 52.3339 144.72 54.5385 146.001 55.8956C147.661 57.6479 148.373 60.1411 147.812 62.2417C147.572 63.1242 147.123 63.9366 146.503 64.6106C145.883 65.2846 145.109 65.8006 144.247 66.1154C143.401 66.418 142.506 66.5668 141.607 66.5548Z" fill="#56584B"/>
<path d="M116.808 76.1012C116.437 76.1115 116.078 75.9749 115.809 75.7214C115.54 75.4679 115.383 75.1182 115.372 74.7493C115.362 74.3804 115.499 74.0225 115.754 73.7544C116.008 73.4862 116.359 73.3297 116.729 73.3194C118.692 73.2076 120.719 73.0594 122.768 72.9242C126.915 72.6357 131.205 72.3393 135.223 72.2613C135.873 72.2282 136.498 72.0092 137.025 71.6306C137.553 71.252 137.959 70.7299 138.196 70.1269C138.414 69.5037 138.452 68.832 138.305 68.1884C138.158 67.5448 137.833 66.9553 137.366 66.4872C137.108 66.2301 136.962 65.8831 136.957 65.52C136.953 65.1568 137.091 64.8063 137.342 64.543C137.593 64.2796 137.937 64.1244 138.301 64.1102C138.666 64.096 139.021 64.2241 139.292 64.4671C140.155 65.3154 140.757 66.3919 141.027 67.5697C141.296 68.7475 141.222 69.9775 140.813 71.1148C140.378 72.2387 139.622 73.2109 138.638 73.9113C137.655 74.6118 136.487 75.0098 135.278 75.0561C131.327 75.1315 127.076 75.4252 122.964 75.7112C120.902 75.8542 118.864 75.9946 116.889 76.109L116.808 76.1012Z" fill="#56584B"/>
<path d="M29.2458 82.6534C30.0891 79.0938 33.6718 76.8834 37.2528 77.7254C40.8336 78.5675 43.0453 82.1404 42.202 85.6998C41.3586 89.2591 37.777 91.4689 34.1962 90.6271C30.6154 89.7851 28.4028 86.2128 29.2458 82.6534Z" fill="#7A8B36" stroke="#56584B" stroke-width="2"/>
<path d="M59.2967 64.6446C61.3039 63.7838 63.6274 64.7083 64.4889 66.7022C65.3503 68.696 64.4274 71.0128 62.4203 71.8736C60.4131 72.7344 58.0896 71.8098 57.2281 69.816C56.3665 67.8221 57.2895 65.5053 59.2967 64.6446Z" fill="#7A8B36" stroke="#56584B" stroke-width="2"/>
<path d="M39.8155 21.5902C41.8227 20.7295 44.1462 21.654 45.0077 23.6479C45.8691 25.6417 44.9462 27.9585 42.9391 28.8193C40.9319 29.68 38.6084 28.7555 37.7469 26.7617C36.8853 24.7677 37.8083 22.451 39.8155 21.5902Z" fill="#7A8B36" stroke="#56584B" stroke-width="2"/>
</g>
<defs>
<clipPath id="clip0_345_6985">
<rect width="148" height="144" fill="white"/>
</clipPath>
</defs>
</svg>
