<svg width="128" height="133" viewBox="0 0 128 133" fill="none" xmlns="http://www.w3.org/2000/svg">
<g clip-path="url(#clip0_345_6935)">
<mask id="mask0_345_6935" style="mask-type:luminance" maskUnits="userSpaceOnUse" x="0" y="0" width="128" height="133">
<path d="M128 0H0V133H128V0Z" fill="white"/>
</mask>
<g mask="url(#mask0_345_6935)">
<path d="M42.1444 18.2292C44.0563 7.29173 51.9883 0.980385 62.9811 6.08922e-05C72.4881 -0.137671 81.1874 4.11985 84.8408 13.3681C85.4538 14.9156 85.7257 16.6089 86.3874 18.1077L86.4402 18.2333C87.5281 19.1852 88.7703 19.9671 89.8988 20.8704C103.071 31.4555 104.813 47.882 101.484 63.2998C104.529 63.4052 105.629 67.6384 105.816 70.0203C108.481 72.5076 111.198 74.9381 113.967 77.312C118.176 80.9578 118.753 80.5122 121.217 85.6123C122.398 88.0429 123.429 90.5707 124.598 93.0174C125.767 95.4642 127.464 97.5018 127.874 100.309C128.739 106.272 123.717 127.009 119.504 132.38C118.513 133.64 116.256 132.53 116.488 130.975C116.581 130.335 118.956 125.157 119.402 124.048C121.537 118.757 124.781 106.629 124.375 101.107C124.265 99.6447 119.593 90.7813 118.554 88.4723C116.427 83.7449 116.707 84.0163 112.716 80.8241C111.308 79.698 103.015 71.7865 102.182 71.9364C98.3179 72.6372 107.898 81.2252 108.803 82.1407C112.189 85.5637 113.512 87.1881 115.392 91.7009C116.285 93.8398 118.639 97.8826 115.314 98.7049L115.176 98.6685C113.293 98.1499 113.411 96.6065 112.834 94.97C110.22 87.5689 108.775 87.7553 103.741 82.165C102.3 80.5446 96.3247 72.698 94.9649 73.8363C92.7687 75.6795 100.157 84.4376 101.289 86.0903C103.802 89.7362 107.212 95.8571 106.761 100.528C106.502 103.254 101.245 113.053 97.3964 107.888C95.7199 105.644 96.4425 103.076 96.8037 100.532C97.7049 96.0192 96.9661 93.6453 92.7241 91.5793C92.0908 94.6783 91.7498 97.915 91.3114 101.046C89.3508 115.103 88.3968 116.691 98.7604 127.71C99.5966 128.597 101.509 130.01 101.48 131.355C101.448 133.012 99.5885 133.381 98.4722 132.506C97.4735 131.72 96.6008 130.594 95.728 129.67C87.6783 121.163 85.6364 118.093 86.7974 106.77C84.8205 108.796 83.1927 110.607 81.0087 112.462C81.0737 115.283 81.7431 118.058 82.9719 120.6C84.2007 123.142 85.9605 125.392 88.1329 127.199C89.2939 128.131 93.1057 129.257 91.9203 131.376C91.746 131.656 91.5153 131.897 91.2428 132.084C90.9703 132.271 90.6619 132.399 90.3372 132.461C83.6311 130.748 78.1591 121.374 77.6192 114.925C68.1243 120.519 60.1436 120.353 50.8273 114.925C50.2022 119.729 48.55 124.031 45.3269 127.701C43.9305 129.293 40.3542 132.53 38.1459 132.607C36.6277 132.66 35.8808 130.768 36.8428 129.65C37.4761 128.917 38.7061 128.479 39.5342 127.969C44.7058 124.789 47.2795 118.392 47.247 112.502C38.7507 106.126 33.0027 95.8936 30.6036 85.6974C26.869 83.7124 26.5686 81.1968 25.3264 77.5672C23.7311 72.9005 20.2684 66.1557 26.9217 63.3201C22.2737 47.3027 26.8365 26.9266 42.1444 18.2292ZM62.4656 3.72691C53.8962 4.90978 50.0236 8.10191 46.4838 15.4381C48.1482 15.1303 50.4742 14.077 52.2157 13.5464C56.6241 12.2014 61.061 11.8288 65.644 11.8328C69.5177 11.968 73.3544 12.6332 77.0468 13.8097C78.5975 14.3079 80.1157 15.0857 81.6948 15.43C78.1672 7.154 71.2987 3.17194 62.4656 3.72691ZM63.8985 15.4381C54.1763 15.5759 44.9778 19.1407 38.1581 26.1285C28.7281 35.79 27.7904 47.801 29.8567 60.2657C32.7469 53.8409 38.6655 53.3427 44.3445 50.7784C55.1059 45.9173 66.4803 37.3212 73.8318 28.1986C75.1714 26.5377 76.7464 22.3571 79.2104 24.0788C81.5933 27.0602 71.932 35.9763 69.7359 38.0788C68.4166 39.3305 66.8943 40.4364 65.644 41.7246C72.3664 46.3913 76.3324 45.4434 83.2292 46.5452C91.6646 47.8982 95.6631 54.1204 98.4194 61.3473C98.6305 58.6534 99.2313 56.0122 99.3936 53.3102C100.725 32.0753 85.5349 14.8913 63.8985 15.4543V15.4381ZM62.4656 44.0741C55.8244 48.8421 49.1102 53.2616 41.3162 56.0001C36.0391 57.8554 34.1961 58.1997 32.4709 64.268C31.659 67.1036 30.8674 68.9833 28.0381 66.6418C26.5807 67.6262 26.3291 68.5944 26.7269 70.2148C27.1328 71.908 29.7714 79.937 30.5346 80.9983C31.3464 82.1285 33.3761 82.6916 33.8511 83.5464C34.395 84.5429 34.5006 86.2159 34.801 87.3542C38.2271 100.281 48.7692 113.013 62.4656 115.419C73.3447 115.52 81.5081 109.424 86.8218 100.066C87.3171 99.2671 87.7332 98.4219 88.0639 97.5423C89.1153 94.3826 87.7432 86.382 93.3655 87.9821C93.897 86.3731 94.3308 84.7336 94.6645 83.0724C92.0827 79.2969 87.6052 71.349 95.2693 70.0203C95.1678 68.3473 95.3505 66.6783 95.2368 65.0053C95.0522 62.2415 94.183 59.5668 92.7072 57.2209C91.2314 54.875 89.1952 52.9314 86.7812 51.5643C83.8138 49.8832 81.7191 50.0857 78.4919 49.8143C72.4272 49.3039 67.6047 47.2987 62.4534 44.0741H62.4656ZM98.7604 66.1719C98.7849 67.7116 98.6708 69.2504 98.4194 70.7697C98.8188 70.2128 99.3185 69.7348 99.8929 69.36C100.514 68.9469 101.188 68.6211 101.898 68.3918C101.164 66.9538 100.275 66.4271 98.7604 66.1719ZM97.5425 86.9208C97.184 87.8571 96.9427 88.834 96.8241 89.8293C97.3964 90.3965 98.0419 90.8664 98.6223 91.4295C102.174 94.9416 99.9254 100.933 99.9051 105.255C100.205 104.993 100.487 104.711 100.749 104.413C101.967 102.966 103.295 101.196 103.116 99.2113C102.873 96.4648 99.694 88.9624 97.5425 86.9208Z" fill="#56584B"/>
</g>
<mask id="mask1_345_6935" style="mask-type:luminance" maskUnits="userSpaceOnUse" x="0" y="0" width="128" height="133">
<path d="M128 0H0V133H128V0Z" fill="white"/>
</mask>
<g mask="url(#mask1_345_6935)">
<path d="M13.5172 118.854C9.26458 119.188 13.2535 111.08 4.71117 108.81C3.42611 108.469 0.596015 108.435 1.58024 106.026C2.34533 104.15 9.16431 105.651 10.9768 98.3609C11.3482 96.9314 11.0696 95.4456 12.6221 94.7665C16.507 94.3913 13.064 102.496 21.3984 104.751C22.7354 105.126 25.4429 105.081 24.6221 107.377C23.8013 109.673 16.8709 107.64 15.1588 115.421C14.8282 116.922 15.1588 118.183 13.506 118.873L13.5172 118.854ZM12.8738 111.099C11.4328 112.889 10.6945 105.407 8.77805 106.702C10.5645 108 19.2703 106.255 16.8023 108.158C17.9305 106.428 6.92703 108.053 8.61707 106.881C5.7944 105.211 16.3667 103.741 14.7957 102.334L12.8738 111.099Z" fill="#7A8B36"/>
<path d="M13.2782 119.907C8.63021 120.268 12.99 111.514 3.65343 109.063C2.24889 108.694 -0.844351 108.658 0.231381 106.057C1.06761 104.032 8.52061 105.652 10.5016 97.7812C10.9075 96.2378 10.6031 94.6337 12.2999 93.9005C16.546 93.4954 12.7829 102.245 21.8922 104.68C23.3535 105.085 26.3128 105.036 25.4157 107.516C24.5186 109.995 16.9438 107.799 15.0724 116.201C14.7111 117.821 15.0724 119.182 13.266 119.928L13.2782 119.907ZM12.8723 102.237C11.2972 104.17 10.1931 105.389 8.09844 106.786C10.051 108.188 11.5327 109.509 12.8723 111.534C14.1054 109.667 15.6893 108.056 17.5365 106.79C14.4513 104.988 14.5731 103.76 12.856 102.241L12.8723 102.237Z" fill="#56584B"/>
</g>
</g>
<defs>
<clipPath id="clip0_345_6935">
<rect width="128" height="133" fill="white"/>
</clipPath>
</defs>
</svg>
