<svg width="130" height="130" viewBox="0 0 130 130" fill="none" xmlns="http://www.w3.org/2000/svg">
<g clip-path="url(#clip0_345_7007)">
<path d="M72.7981 45.4837V28.6939C72.7839 28.7129 72.7649 28.7296 72.7506 28.7486C72.2495 24.6467 58.3503 24.5778 57.386 28.5395C57.3575 28.4968 57.3171 28.4659 57.291 28.4232V45.5051C54.1012 46.5002 51.2724 48.0844 49.0065 50.0985V41.4887C49.0065 36.8026 45.0899 26.8437 35.8293 23.2478V13.0347C35.8127 13.049 35.7961 13.0656 35.7795 13.0799C35.789 13.0062 35.8293 12.9445 35.8293 12.8685C35.8293 11.5004 34.1406 10.6454 32.003 10.2345C31.927 8.69301 31.927 7.01855 32.6514 6.26089C32.9507 5.94499 33.3165 5.81199 34.0005 5.80011C34.6489 5.79299 36.2996 5.64573 37.7223 5.49847C39.392 5.32271 40.3919 4.31091 40.3967 2.78608C40.4015 1.27788 39.3849 0.235199 37.7413 0.0641898C37.3684 0.0261878 36.9931 0.028563 36.6131 0.0356883L31.0625 0.0523142C26.773 0.0665649 22.4835 0.0831908 18.1964 0.0024366C15.6313 -0.0379405 13.3417 0.422833 11.1827 1.43464C10.2493 1.87166 9.28971 2.25643 8.32779 2.6412C7.41812 3.00697 6.50607 3.37274 5.61777 3.77888C4.14045 4.45342 3.54429 5.90937 4.16895 7.32019C4.77223 8.68351 6.12367 9.23929 7.70313 8.76427C8.68643 8.46738 9.44885 8.17049 10.1044 7.82609C13.8072 5.88324 17.7832 5.10183 21.961 5.53172C22.3505 5.55072 22.7258 5.56023 23.0844 5.56973C24.6758 5.60773 25.3408 5.67186 25.5094 6.18963C25.6947 6.76441 25.7564 8.68114 25.7469 10.2107C23.55 10.6121 21.7971 11.4719 21.7971 12.8661C21.7971 13.0704 21.8589 13.2532 21.9277 13.4361C21.8874 13.3981 21.8327 13.3696 21.7971 13.3316V23.0079C11.6577 26.4756 8.10453 37.2919 8.10453 41.4887V125.171C8.10453 129.055 23.759 129.356 28.5567 129.356C32.2857 129.356 42.5438 129.169 46.9425 127.264C51.1038 129.121 58.2339 130 65.0481 130C75.5105 130 86.7734 127.941 86.7734 123.423V61.9504C86.7686 54.4426 80.9567 48.0251 72.7981 45.4837ZM58.9749 33.7185C60.2456 34.4993 62.442 34.9951 65.0434 34.9951C67.6465 34.9951 69.8411 34.4987 71.1142 33.7173V45.4433L71.1213 46.0347C71.1023 46.1036 71.0785 46.1653 71.0548 46.2295C70.6938 46.6475 68.6773 47.4954 65.0457 47.4954C61.1957 47.4954 59.1388 46.5359 58.9749 46.2033V33.7185ZM65.0434 27.2403C68.9861 27.2403 71.1142 28.4659 71.1142 28.9694C71.1142 29.473 68.9861 30.6985 65.0434 30.6985C61.1007 30.6985 58.9725 29.4706 58.9725 28.9694C58.9725 28.4683 61.1007 27.2403 65.0434 27.2403ZM58.9725 31.1522C60.4665 31.9573 62.7537 32.3801 65.0434 32.3801C67.333 32.3801 69.6178 31.9573 71.1142 31.1522V32.8979C70.1617 33.6674 67.9315 34.323 65.0434 34.323C62.1576 34.323 59.925 33.6674 58.9725 32.8979V31.1522ZM34.181 26.7178C33.934 27.0693 32.0458 27.7581 28.8109 27.7581C25.5759 27.7581 23.6901 27.0693 23.4763 26.8651V14.8351C24.8491 15.4787 26.8609 15.7946 28.8109 15.7946C30.7608 15.7946 32.7702 15.4787 34.1454 14.8351V26.2475L34.181 26.7178ZM25.5569 4.1589V4.16128C24.8373 3.92852 23.9727 3.90714 23.1201 3.88576C22.778 3.87864 22.4218 3.86914 22.0893 3.85251C17.6145 3.39886 13.3227 4.23491 9.32059 6.33452C8.76481 6.62666 8.09503 6.88554 7.21861 7.14918C6.08567 7.48408 5.80066 6.84517 5.70803 6.63616C5.38739 5.91412 5.86241 5.51272 6.31843 5.30609C7.18298 4.90944 8.0689 4.55555 8.95482 4.19928C9.94525 3.80263 10.9333 3.40599 11.8952 2.95471C13.8405 2.04267 15.8403 1.62702 18.1632 1.68402C22.4645 1.7624 26.7659 1.74578 31.0672 1.73153L36.644 1.7149C36.9552 1.71253 37.2639 1.70302 37.5679 1.7339C38.7175 1.85266 38.7151 2.52244 38.7127 2.77421C38.7127 3.2041 38.5774 3.71238 37.461 3.82876C36.7723 3.90239 34.6584 4.11615 34.0147 4.1114C33.8556 4.1114 33.7321 4.1684 33.5825 4.18265C33.5421 4.17553 33.5041 4.1589 33.4637 4.1589H25.5569ZM30.3547 11.0563C30.3689 11.3128 30.3832 11.5645 30.3951 11.802C30.1433 11.9018 29.6255 12.0229 28.8797 12.0229C28.1506 12.0229 27.6399 11.9066 27.381 11.8092C27.4594 10.5147 27.476 7.14443 27.1459 5.84286H30.9105C30.1457 7.29407 30.2549 9.34855 30.3547 11.0563ZM25.6852 11.9374C25.6804 11.9849 25.6781 12.0538 25.6733 12.0918C25.6733 13.2818 27.3311 13.7069 28.8821 13.7069C30.0459 13.7069 31.2691 13.467 31.8083 12.8447L31.8771 12.7568C31.9745 12.6238 32.0386 12.4742 32.0719 12.308L32.1883 11.9992C33.3355 12.2794 34.0124 12.6476 34.1383 12.8661C33.9174 13.2461 32.1336 14.1107 28.8132 14.1107C25.4002 14.1107 23.6117 13.1986 23.4739 12.8946C23.5571 12.669 24.3124 12.2367 25.6852 11.9374ZM21.7924 25.5469V26.8651C21.7924 29.3685 28.0912 29.4421 28.8109 29.4421C29.5305 29.4421 35.8293 29.3685 35.8293 26.8651V25.82C43.3395 29.2925 46.6504 37.6505 46.6504 41.4887V52.5948C44.5437 55.3072 43.3205 58.5136 43.3205 61.9528V118.751C40.1164 119.329 35.1406 119.797 28.8132 119.797C18.2463 119.797 11.3869 118.497 10.4606 117.697V41.4887H10.4583C10.4583 37.4178 13.8262 28.8103 21.7924 25.5469ZM28.5543 127C17.6145 127 11.5698 125.684 10.4583 124.903V119.405C15.0446 121.404 27.1483 121.478 28.8109 121.478C30.1172 121.478 37.8316 121.426 43.3181 120.44V123.426C43.3181 124.259 43.7052 125.008 44.3964 125.675C41.5985 126.335 36.3376 127 28.5543 127ZM84.4125 123.423C84.4125 124.856 77.5769 127.644 65.0434 127.644C52.5098 127.644 45.6766 124.856 45.6766 123.423V119.265C49.8093 121.321 59.3597 121.937 65.0434 121.937C70.727 121.937 80.2798 121.321 84.4125 119.265V123.423ZM84.4125 117.433C82.8829 118.588 76.1162 120.253 65.0434 120.253C53.9729 120.253 47.2062 118.588 45.6766 117.433V61.9504C45.6766 55.4402 50.8734 49.8895 58.1579 47.6925C59.6851 48.8278 62.9081 49.177 65.0434 49.177C67.1786 49.177 70.404 48.8279 71.9312 47.6902C79.2157 49.8872 84.4101 55.4402 84.4101 61.948V117.433H84.4125Z" fill="#56584B"/>
<circle cx="106.345" cy="99.9963" r="6.74241" fill="#7A8B36"/>
<ellipse cx="64.9278" cy="70.1371" rx="8.34774" ry="8.98987" fill="#7A8B36"/>
<ellipse cx="28.6473" cy="49.2678" rx="8.02667" ry="8.66881" fill="#7A8B36"/>
<path d="M65.0434 60.4208C60.0984 60.4208 56.075 64.677 56.075 69.907C56.075 75.137 60.0984 79.3933 65.0434 79.3933C69.9884 79.3933 74.0119 75.137 74.0119 69.907C74.0119 64.677 69.9884 60.4208 65.0434 60.4208ZM65.0434 78.0466C60.8395 78.0466 57.424 74.396 57.424 69.907C57.424 65.4204 60.8418 61.7698 65.0434 61.7698C69.2474 61.7698 72.6628 65.4204 72.6628 69.907C72.6628 74.396 69.245 78.0466 65.0434 78.0466Z" fill="#56584B"/>
<path d="M9.38322 20.6928C11.6949 19.4086 9.49024 15.8768 8.09895 14.2715L5.20935 18.7664C5.63744 19.9437 7.07154 21.9771 9.38322 20.6928Z" fill="#7A8B36"/>
<path d="M11.5056 18.5189C11.5056 16.8706 9.10202 13.6048 8.61986 12.9659L7.94771 12.0752L7.27555 12.9659C6.7934 13.6048 4.38977 16.8706 4.38977 18.5189C4.38977 20.4285 5.98585 21.9842 7.94771 21.9842C9.90956 21.9842 11.5056 20.4285 11.5056 18.5189ZM7.94771 20.3002C6.91453 20.3002 6.07373 19.5022 6.07373 18.5189C6.07373 17.9299 6.95728 16.3552 7.94771 14.9135C8.93813 16.3552 9.82168 17.9322 9.82168 18.5189C9.82168 19.5022 8.98088 20.3002 7.94771 20.3002Z" fill="#56584B"/>
<path d="M126.072 39.7145C126.044 36.9974 123.83 34.7957 121.106 34.7957H92.4002C89.6023 34.7957 87.3245 36.9713 87.1107 39.7145L87.068 41.1657V42.0707H87.1487L93.7065 116.657H96.2645V118.509H92.6709V123.606C92.6709 126.739 95.2194 129.288 98.3522 129.288H114.79C117.923 129.288 120.472 126.739 120.472 123.606V118.509H116.881V116.657H119.439L125.996 42.0707H126.077V41.1515L126.072 39.7145ZM121.106 37.1518C121.139 37.1518 121.165 37.1684 121.196 37.1708L120.324 39.7145H117.258L118.327 37.1518H121.106ZM117.598 37.1518L116.529 39.7145H113.772L114.643 37.1518H117.598ZM113.931 37.1518L113.059 39.7145H110.297L111.175 37.1518H113.931ZM110.461 37.1518L109.582 39.7145H106.513L107.582 37.1518H110.461ZM106.855 37.1518L105.786 39.7145H102.677L103.798 37.1518H106.855ZM103.064 37.1518L101.943 39.7145H99.554L100.43 37.1518H103.064ZM99.7203 37.1518L98.8439 39.7145H95.7752L96.844 37.1518H99.7203ZM93.0771 37.1518H96.1148L95.046 39.7145H92.0035L93.0771 37.1518ZM92.3408 37.1613L91.2696 39.7145H89.4502C89.6521 38.2871 90.8682 37.1922 92.3408 37.1613ZM118.116 120.865V123.606C118.116 125.437 116.624 126.929 114.793 126.929H98.3522C96.5186 126.929 95.027 125.437 95.027 123.606V120.865H118.116ZM97.6112 118.509V116.657H115.531V118.509H97.6112ZM117.28 114.301H95.8655L89.512 42.0707H123.631L117.28 114.301ZM121.037 39.7145L121.864 37.3038C122.916 37.6292 123.697 38.565 123.719 39.7145H121.037Z" fill="#56584B"/>
<path d="M106.572 107.978C110.634 107.978 113.94 104.482 113.94 100.187C113.94 95.8933 110.634 92.3971 106.572 92.3971C102.511 92.3971 99.2047 95.8909 99.2047 100.187C99.2047 104.484 102.509 107.978 106.572 107.978ZM106.572 93.7462C109.89 93.7462 112.591 96.6367 112.591 100.187C112.591 103.741 109.89 106.631 106.572 106.631C103.252 106.631 100.551 103.741 100.551 100.187C100.551 96.6343 103.252 93.7462 106.572 93.7462Z" fill="#56584B"/>
<path d="M28.8109 58.2049C33.7559 58.2049 37.7793 54.0817 37.7793 49.0179C37.7793 43.9518 33.7559 39.8309 28.8109 39.8309C23.8659 39.8309 19.8424 43.9518 19.8424 49.0179C19.8424 54.0817 23.8659 58.2049 28.8109 58.2049ZM28.8109 41.1776C33.0125 41.1776 36.4303 44.6928 36.4303 49.0179C36.4303 53.3406 33.0125 56.8558 28.8109 56.8558C24.6093 56.8558 21.1915 53.3406 21.1915 49.0179C21.1915 44.6952 24.6093 41.1776 28.8109 41.1776Z" fill="#56584B"/>
</g>
<defs>
<clipPath id="clip0_345_7007">
<rect width="130" height="130" fill="white"/>
</clipPath>
</defs>
</svg>
