<svg width="99" height="136" viewBox="0 0 99 136" fill="none" xmlns="http://www.w3.org/2000/svg">
<g clip-path="url(#clip0_345_6976)">
<path d="M18.6386 132.367C24.683 128.433 17.6905 119.97 14.0164 116.275C12.3098 116.847 7.26093 128.791 7.26093 128.791C7.26093 128.791 12.5942 136.3 18.6386 132.367Z" fill="#7A8B36" stroke="#7A8B36"/>
<path d="M15.3811 114.494C17.3379 116.526 19.034 118.797 20.43 121.253C21.5707 123.173 22.2206 125.348 22.3215 127.582C22.258 129.773 21.348 131.853 19.7846 133.38C18.2213 134.907 16.1277 135.762 13.9483 135.762C11.7689 135.762 9.67524 134.907 8.11188 133.38C6.54852 131.853 5.6385 129.773 5.57501 127.582C5.67239 125.347 6.32252 123.172 7.46654 121.253C8.86467 118.8 10.558 116.53 12.5083 114.494C12.6919 114.296 12.9143 114.138 13.1614 114.029C13.4085 113.921 13.6752 113.865 13.9447 113.865C14.2142 113.865 14.4809 113.921 14.728 114.029C14.9751 114.138 15.1975 114.296 15.3811 114.494ZM81.2294 32.2478C80.7247 32.2173 80.2506 31.9942 79.9039 31.624C79.5572 31.2538 79.3642 30.7645 79.3642 30.256C79.3642 29.7474 79.5572 29.2581 79.9039 28.8879C80.2506 28.5177 80.7247 28.2946 81.2294 28.2642H85.4961V24.4951H81.2294C80.7247 24.4647 80.2506 24.2416 79.9039 23.8714C79.5572 23.5012 79.3642 23.0119 79.3642 22.5033C79.3642 21.9948 79.5572 21.5055 79.9039 21.1353C80.2506 20.7651 80.7247 20.542 81.2294 20.5115H85.4961V19.4674C85.497 19.1737 85.4403 18.8828 85.3292 18.6113C85.2182 18.3397 85.0549 18.0929 84.8488 17.8849C84.6427 17.677 84.3978 17.512 84.1281 17.3994C83.8585 17.2868 83.5694 17.2288 83.2774 17.2288H56.0706C55.484 17.2293 54.9216 17.4633 54.5061 17.8797C54.0887 18.3016 53.8536 18.8721 53.8519 19.4674V20.5115H58.1185C58.3886 20.4953 58.6591 20.5347 58.9134 20.6274C59.1678 20.7202 59.4006 20.8642 59.5975 21.0508C59.7945 21.2373 59.9514 21.4624 60.0587 21.7122C60.1659 21.962 60.2212 22.2312 60.2212 22.5033C60.2212 22.7754 60.1659 23.0446 60.0587 23.2944C59.9514 23.5442 59.7945 23.7693 59.5975 23.9559C59.4006 24.1424 59.1678 24.2865 58.9134 24.3792C58.6591 24.472 58.3886 24.5114 58.1185 24.4951H53.8519V28.2427H58.1185C58.3886 28.2264 58.6591 28.2659 58.9134 28.3586C59.1678 28.4513 59.4006 28.5954 59.5975 28.782C59.7945 28.9685 59.9514 29.1936 60.0587 29.4434C60.1659 29.6932 60.2212 29.9624 60.2212 30.2345C60.2212 30.5066 60.1659 30.7758 60.0587 31.0256C59.9514 31.2754 59.7945 31.5005 59.5975 31.6871C59.4006 31.8736 59.1678 32.0177 58.9134 32.1104C58.6591 32.2032 58.3886 32.2426 58.1185 32.2263H53.8519V35.509H85.5316V32.2263L81.2294 32.2478ZM77.169 94.5978L71.6651 100.126V108.201C71.6651 108.728 71.4568 109.234 71.0861 109.607C70.7153 109.979 70.2125 110.189 69.6882 110.189C69.1639 110.189 68.6611 109.979 68.2904 109.607C67.9196 109.234 67.7113 108.728 67.7113 108.201V100.126L62.2074 94.5906C60.5679 94.7577 58.9119 94.5699 57.3505 94.0399C55.3675 93.3745 53.5676 92.2501 52.0955 90.7572C50.6192 89.2744 49.5045 87.4678 48.8386 85.4791C48.1871 83.5501 48.0594 81.4811 48.4688 79.4859C48.5511 79.1031 48.7442 78.7534 49.0239 78.481C49.3037 78.2086 49.6574 78.0257 50.0404 77.9554C52.0089 77.555 54.0477 77.6858 55.9497 78.3344C57.9334 79.0068 59.7358 80.1313 61.2161 81.62C62.6963 83.1088 63.8144 84.9215 64.4829 86.9167C65.0076 88.4899 65.1919 90.1578 65.0234 91.8085L67.7327 94.5263V81.0879C66.4483 80.0415 65.4029 78.7292 64.6678 77.2402C63.7415 75.3593 63.2595 73.2887 63.2595 71.1897C63.2595 69.0907 63.7415 67.0201 64.6678 65.1392C65.562 63.3073 66.9271 61.7492 68.6216 60.6264C68.9452 60.4108 69.3249 60.2958 69.7131 60.2958C70.1013 60.2958 70.481 60.4108 70.8046 60.6264C72.4749 61.7525 73.8232 63.2984 74.7157 65.1106C75.6421 66.9915 76.124 69.0621 76.124 71.1611C76.124 73.2601 75.6421 75.3307 74.7157 77.2116C73.9793 78.6936 72.9397 80.0024 71.6651 81.0521V94.4476L74.3673 91.7227C74.2123 90.0739 74.3987 88.4107 74.9148 86.838C75.5834 84.8428 76.7014 83.0301 78.1817 81.5414C79.6619 80.0526 81.4643 78.9281 83.4481 78.2558C85.3523 77.6058 87.3937 77.475 89.3645 77.8767C89.7468 77.9488 90.0995 78.1323 90.3789 78.4044C90.6583 78.6766 90.8521 79.0253 90.936 79.4072C91.3406 81.4028 91.2131 83.4705 90.5662 85.4005C89.8958 87.3946 88.777 89.2063 87.2971 90.6948C85.8171 92.1833 84.0157 93.3084 82.033 93.9827C80.4693 94.5131 78.8108 94.7008 77.169 94.5334V94.5978ZM78.2712 90.6857C79.1292 90.6824 79.9813 90.5424 80.7957 90.2709C82.1822 89.7892 83.4417 88.9967 84.479 87.9535C85.5163 86.9103 86.3042 85.6435 86.7832 84.249C87.0531 83.43 87.1924 82.573 87.1956 81.7101C86.3372 81.7081 85.4843 81.8483 84.6712 82.1249C83.2829 82.6034 82.0216 83.3947 80.9839 84.4383C79.9462 85.482 79.1594 86.7505 78.6837 88.1468C78.4086 88.9646 78.2693 89.8224 78.2712 90.6857ZM58.5879 90.2709C59.402 90.5436 60.2542 90.6837 61.1123 90.6857C61.1102 89.8227 60.971 88.9656 60.6998 88.1468C60.2209 86.7523 59.4329 85.4856 58.3957 84.4423C57.3584 83.3991 56.0989 82.6067 54.7123 82.1249C53.8988 81.8499 53.0462 81.7098 52.1879 81.7101C52.1876 82.5733 52.3269 83.4308 52.6004 84.249C53.0794 85.6435 53.8673 86.9103 54.9045 87.9535C55.9418 88.9967 57.2013 89.7892 58.5879 90.2709ZM68.1949 75.4522C68.5732 76.2294 69.0779 76.9377 69.6882 77.5477C70.2921 76.9323 70.7961 76.2252 71.1815 75.4522C71.8225 74.125 72.1555 72.6688 72.1555 71.1933C72.1555 69.7178 71.8225 68.2616 71.1815 66.9343C70.7942 66.1647 70.2905 65.4602 69.6882 64.846C69.0774 65.4545 68.5704 66.16 68.1878 66.9343C67.5468 68.2616 67.2138 69.7178 67.2138 71.1933C67.2138 72.6688 67.5468 74.125 68.1878 75.4522H68.1949ZM23.7722 34.6436C24.7525 34.9814 25.6311 35.5647 26.3252 36.3386C27.0192 37.1125 27.5059 38.0513 27.7393 39.0668C27.9726 40.0822 27.945 41.1406 27.659 42.1423C27.373 43.144 26.8381 44.056 26.1046 44.7921C25.4498 45.455 24.6516 45.9568 23.7722 46.2583V86.2516C23.7691 87.9247 23.3408 89.5693 22.5277 91.029C21.9011 92.1616 21.0605 93.1601 20.0531 93.9684V103.402C20.0531 105.031 19.4095 106.594 18.264 107.746C17.1184 108.898 15.5648 109.545 13.9447 109.545C12.3247 109.545 10.771 108.898 9.62542 107.746C8.47988 106.594 7.83632 105.031 7.83632 103.402V93.9684C6.8345 93.1563 5.99686 92.1585 5.36879 91.029C4.55577 89.5693 4.12739 87.9247 4.12435 86.2516V69.9381C4.10816 69.6665 4.14738 69.3945 4.23958 69.1387C4.33179 68.8829 4.47504 68.6487 4.66053 68.4507C4.84601 68.2526 5.06982 68.0948 5.31819 67.9869C5.56656 67.879 5.83424 67.8233 6.10478 67.8233C6.37532 67.8233 6.643 67.879 6.89137 67.9869C7.13974 68.0948 7.36354 68.2526 7.54903 68.4507C7.73452 68.6487 7.87777 68.8829 7.96998 69.1387C8.06218 69.3945 8.10139 69.6665 8.08521 69.9381V86.2516C8.07548 87.2506 8.32029 88.2354 8.79631 89.1123C9.29259 89.9888 9.99908 90.7264 10.8514 91.2579C11.1445 91.4364 11.3865 91.6884 11.5535 91.9894C11.7206 92.2903 11.807 92.6297 11.8043 92.9743V103.43C11.8045 103.714 11.8606 103.994 11.9692 104.256C12.0778 104.517 12.2369 104.754 12.4372 104.954C12.7352 105.259 13.117 105.467 13.5337 105.553C13.9504 105.638 14.3829 105.596 14.7757 105.432C15.1685 105.269 15.5038 104.99 15.7383 104.634C15.9729 104.277 16.0962 103.858 16.0922 103.43V92.9743C16.0917 92.6178 16.1865 92.2677 16.3666 91.9607C16.5468 91.6537 16.8057 91.4011 17.1162 91.2293C17.9296 90.6979 18.603 89.9765 19.0789 89.1266C19.5549 88.2497 19.7997 87.2649 19.79 86.2659V46.6016H8.08521V60.9053C8.10139 61.1769 8.06218 61.449 7.96998 61.7048C7.87777 61.9606 7.73452 62.1947 7.54903 62.3928C7.36354 62.5909 7.13974 62.7487 6.89137 62.8566C6.643 62.9645 6.37532 63.0201 6.10478 63.0201C5.83424 63.0201 5.56656 62.9645 5.31819 62.8566C5.06982 62.7487 4.84601 62.5909 4.66053 62.3928C4.47504 62.1947 4.33179 61.9606 4.23958 61.7048C4.14738 61.449 4.10816 61.1769 4.12435 60.9053V46.2583C3.24717 45.9565 2.45131 45.4547 1.79904 44.7921C1.06732 44.0556 0.53373 43.1441 0.248388 42.1432C-0.0369548 41.1424 -0.0646908 40.085 0.167785 39.0704C0.40026 38.0558 0.885319 37.1172 1.57741 36.3429C2.2695 35.5686 3.14592 34.9838 4.12435 34.6436V9.87671C4.19323 7.3023 5.25846 4.8566 7.09329 3.06022C8.92812 1.26384 11.3876 0.258667 13.9483 0.258667C16.5089 0.258667 18.9684 1.26384 20.8032 3.06022C22.6381 4.8566 23.7033 7.3023 23.7722 9.87671V16.8069C23.7884 17.0785 23.7492 17.3505 23.6569 17.6063C23.5647 17.8621 23.4215 18.0963 23.236 18.2944C23.0505 18.4924 22.8267 18.6502 22.5783 18.7581C22.33 18.866 22.0623 18.9216 21.7917 18.9216C21.5212 18.9216 21.2535 18.866 21.0052 18.7581C20.7568 18.6502 20.533 18.4924 20.3475 18.2944C20.162 18.0963 20.0188 17.8621 19.9266 17.6063C19.8343 17.3505 19.7951 17.0785 19.8113 16.8069V9.87671C19.7584 8.34834 19.1175 6.90035 18.0237 5.83796C16.93 4.77558 15.4688 4.1818 13.9483 4.1818C12.4277 4.1818 10.9665 4.77558 9.87278 5.83796C8.77903 6.90035 8.13814 8.34834 8.08521 9.87671V34.329H19.8113V25.8325C19.7951 25.5609 19.8343 25.2889 19.9266 25.0331C20.0188 24.7773 20.162 24.5431 20.3475 24.3451C20.533 24.147 20.7568 23.9892 21.0052 23.8813C21.2535 23.7734 21.5212 23.7178 21.7917 23.7178C22.0623 23.7178 22.33 23.7734 22.5783 23.8813C22.8267 23.9892 23.0505 24.147 23.236 24.3451C23.4215 24.5431 23.5647 24.7773 23.6569 25.0331C23.7492 25.2889 23.7884 25.5609 23.7722 25.8325V34.6436ZM6.10833 38.2982C5.82708 38.2976 5.54847 38.3528 5.28852 38.4608C5.02858 38.5688 4.79243 38.7275 4.59368 38.9276C4.19199 39.335 3.96483 39.8844 3.9608 40.4581C3.9608 41.0272 4.18556 41.5729 4.58563 41.9753C4.98571 42.3776 5.52832 42.6037 6.09411 42.6037H21.7953C22.3611 42.6037 22.9037 42.3776 23.3038 41.9753C23.7039 41.5729 23.9286 41.0272 23.9286 40.4581C23.9293 40.1735 23.8737 39.8917 23.7651 39.6289C23.6564 39.3662 23.4969 39.1278 23.2957 38.9276C22.896 38.5251 22.3538 38.2987 21.7882 38.2982H6.10833ZM89.4925 19.4602V36.3172C92.1913 37.8729 94.4694 40.0708 96.1271 42.7181C97.9946 45.7193 98.9807 49.1903 98.9715 52.7307V61.0913C98.9412 61.5989 98.7194 62.0757 98.3513 62.4244C97.9833 62.7731 97.4967 62.9672 96.9911 62.9672C96.4854 62.9672 95.9989 62.7731 95.6308 62.4244C95.2627 62.0757 95.0409 61.5989 95.0107 61.0913V54.7261H44.3444V114.702H95.0391V70.0883C95.0229 69.8167 95.0621 69.5447 95.1543 69.2888C95.2465 69.0331 95.3898 68.7989 95.5753 68.6008C95.7608 68.4028 95.9846 68.2449 96.2329 68.1371C96.4813 68.0292 96.749 67.9735 97.0195 67.9735C97.2901 67.9735 97.5577 68.0292 97.8061 68.1371C98.0545 68.2449 98.2783 68.4028 98.4638 68.6008C98.6493 68.7989 98.7925 69.0331 98.8847 69.2888C98.9769 69.5447 99.0161 69.8167 98.9999 70.0883V129.749C98.9981 131.398 98.3466 132.978 97.1884 134.144C96.0301 135.311 94.4594 135.968 92.8204 135.971H46.5986C44.9597 135.968 43.389 135.311 42.2307 134.144C41.0724 132.978 40.421 131.398 40.4191 129.749V52.7307C40.4057 49.1897 41.392 45.7175 43.2636 42.7181C44.9173 40.0676 47.1964 37.8689 49.8982 36.3172V19.4674C49.9 17.819 50.5515 16.2385 51.7097 15.0723C52.868 13.906 54.4387 13.249 56.0777 13.2452H83.3201C84.9573 13.2509 86.5258 13.9075 87.6834 15.0718C88.8411 16.2361 89.494 17.8136 89.4996 19.4602H89.4925ZM95.0391 118.721H44.3444V129.814C44.3435 130.107 44.4002 130.398 44.5113 130.67C44.6224 130.941 44.7856 131.188 44.9917 131.396C45.1979 131.604 45.4428 131.769 45.7124 131.882C45.982 131.994 46.2711 132.052 46.5631 132.052H92.8204C93.4089 132.048 93.9722 131.811 94.3876 131.392C94.8031 130.973 95.0372 130.405 95.0391 129.814V118.721ZM44.4724 50.7783H94.904C94.6244 48.6798 93.8966 46.6669 92.7707 44.878C91.3763 42.6253 89.4134 40.7845 87.0818 39.5427H52.3301C49.9878 40.7853 48.0113 42.6252 46.5986 44.878C45.4789 46.67 44.7516 48.6814 44.4653 50.7783H44.4724ZM16.9669 123.17C16.1028 121.631 15.0905 120.182 13.9447 118.843C12.8058 120.186 11.7963 121.635 10.9296 123.17C10.1071 124.503 9.61902 126.017 9.50741 127.582C9.50346 128.465 9.76107 129.329 10.2474 130.063C10.7337 130.798 11.4266 131.37 12.2377 131.707C13.0488 132.044 13.9414 132.13 14.8014 131.955C15.6615 131.779 16.45 131.35 17.0665 130.722C17.4785 130.311 17.8056 129.822 18.0289 129.283C18.2522 128.744 18.3674 128.166 18.3678 127.582C18.2585 126.02 17.7781 124.507 16.9669 123.17Z" fill="#56584B"/>
</g>
<defs>
<clipPath id="clip0_345_6976">
<rect width="99" height="136" fill="white"/>
</clipPath>
</defs>
</svg>
