<svg width="103" height="169" viewBox="0 0 103 169" fill="none" xmlns="http://www.w3.org/2000/svg">
<path d="M93.3316 154.255C93.1708 154.425 93.0458 154.626 92.9638 154.844C92.8819 155.062 92.8447 155.294 92.8542 155.527C92.8638 155.76 92.92 155.988 93.0197 156.199C93.1193 156.41 93.2604 156.6 93.4348 156.757C93.6091 156.914 93.8134 157.035 94.0357 157.114C94.258 157.193 94.4939 157.228 94.73 157.217C94.9661 157.206 95.1976 157.149 95.4111 157.049C95.6246 156.949 95.816 156.809 95.9742 156.636C109.969 141.597 99.6575 115.989 94.1415 99.3059C90.6175 88.6335 89.6046 74.81 88.5938 61.0336C88.1958 55.5073 87.7839 49.9869 87.2009 44.5606C85.9811 33.124 84.0171 22.5692 79.713 14.6972C75.2497 6.52343 68.3746 1.26368 57.4443 0.875661C54.2943 0.76396 51.1105 0.803154 47.9605 0.859984C20.5898 1.3793 18.4069 31.131 16.2141 61.0336C15.2032 74.8179 14.1904 88.6335 10.6663 99.3059C5.83491 113.913 -2.66583 135.983 4.71859 150.731C4.82311 150.94 4.96823 151.125 5.14565 151.278C5.32307 151.431 5.52932 151.548 5.75262 151.622C5.97592 151.697 6.21191 151.727 6.4471 151.711C6.68229 151.696 6.91208 151.635 7.12335 151.532C7.33462 151.429 7.52324 151.286 7.67843 151.111C7.83362 150.937 7.95234 150.734 8.02783 150.514C8.10331 150.294 8.13407 150.061 8.11835 149.83C8.10263 149.598 8.04074 149.372 7.93622 149.164C1.1985 135.707 9.65547 113.786 14.0809 100.399C17.7423 89.3135 18.7731 75.2803 19.7998 61.2824C21.8733 32.9927 23.9388 4.84399 48.0163 4.38935C51.1085 4.33056 54.2267 4.29528 57.3189 4.40502C66.7469 4.74013 72.6907 9.30419 76.555 16.3727C80.5865 23.7548 82.459 33.8863 83.635 44.9212C84.1961 50.1692 84.6021 55.7229 85.01 61.2824C86.0368 75.2803 87.0655 89.3057 90.7289 100.399C95.6837 115.391 105.92 140.729 93.3316 154.255Z" fill="#56584B"/>
<path d="M87.5648 53.7255C87.6526 53.2606 87.5691 52.7763 87.3325 52.3792C87.096 51.9821 86.7259 51.7047 86.3036 51.6081C85.8812 51.5114 85.4413 51.6034 85.0806 51.8637C84.7199 52.1241 84.4679 52.5316 84.3801 52.9965C84.3404 53.1952 70.6307 123.649 84.8222 162.939C84.8997 163.159 85.0161 163.36 85.1645 163.53C85.3128 163.7 85.4903 163.836 85.6867 163.93C85.8831 164.025 86.0945 164.075 86.3088 164.079C86.523 164.083 86.7358 164.04 86.935 163.953C87.1341 163.866 87.3157 163.737 87.4692 163.572C87.6226 163.408 87.745 163.211 87.8292 162.994C87.9134 162.777 87.9578 162.544 87.9598 162.309C87.9618 162.073 87.9214 161.839 87.8409 161.62C74.0175 123.351 87.5341 53.9261 87.5648 53.7255Z" fill="#56584B"/>
<path d="M20.9517 52.9959C20.9018 52.7656 20.8054 52.5471 20.6679 52.3528C20.5303 52.1585 20.3544 51.9921 20.1501 51.8633C19.9458 51.7344 19.7172 51.6456 19.4773 51.6018C19.2374 51.5581 18.9908 51.5603 18.7518 51.6083C18.5127 51.6563 18.2858 51.7491 18.084 51.8816C17.8823 52.014 17.7095 52.1835 17.5757 52.3802C17.442 52.5769 17.3497 52.7971 17.3043 53.0282C17.2588 53.2593 17.2611 53.4967 17.3109 53.7269C17.3563 53.9256 32.7959 123.358 16.9933 161.631C16.8117 162.072 16.8194 162.565 17.0147 163C17.2101 163.436 17.5771 163.779 18.035 163.953C18.4929 164.128 19.0042 164.121 19.4564 163.933C19.9086 163.745 20.2647 163.391 20.4463 162.95C36.6697 123.656 20.9971 53.1985 20.9517 52.9959Z" fill="#56584B"/>
<path d="M40.0124 167.89C40.4046 168.154 40.8862 168.253 41.3515 168.164C41.8168 168.075 42.2275 167.807 42.4933 167.418C42.7591 167.028 42.8583 166.55 42.769 166.089C42.6796 165.627 42.4091 165.219 42.017 164.955C38.0813 162.302 35.9636 157.986 35.3324 151.713C34.6636 145.075 35.6401 136.331 37.8927 125.184C41.2667 108.534 37.9622 92.5045 34.9414 77.8103C32.6451 66.6359 30.5115 56.2672 31.6984 47.2557C32.0953 44.3149 33.1254 41.0116 35.9278 39.5225C37.6426 38.6125 39.7167 38.516 41.6835 38.7701C45.7463 39.298 48.6301 40.3202 53.0878 40.3202C57.5455 40.3202 60.4313 39.298 64.488 38.7701C66.447 38.516 68.521 38.6125 70.2437 39.5225C73.0462 41.0116 74.0842 44.3149 74.4712 47.2557C75.662 56.2672 73.5265 66.6438 71.2301 77.8103C68.2094 92.5045 64.9128 108.538 68.2789 125.184C70.5315 136.331 71.508 145.079 70.8391 151.713C70.208 157.986 68.0903 162.302 64.1546 164.955C63.9604 165.086 63.7941 165.253 63.665 165.448C63.536 165.642 63.4468 165.86 63.4026 166.089C63.3584 166.317 63.36 166.552 63.4073 166.78C63.4545 167.008 63.5466 167.225 63.6783 167.418C63.8099 167.61 63.9785 167.775 64.1744 167.903C64.3703 168.031 64.5897 168.12 64.8201 168.164C65.0504 168.208 65.2873 168.206 65.517 168.159C65.7468 168.112 65.965 168.021 66.1592 167.89C71.0495 164.595 73.6575 159.436 74.3997 152.061C75.1043 145.055 74.106 135.979 71.7819 124.485C68.5607 108.544 71.7819 92.8768 74.7352 78.5154C77.093 67.0476 79.2841 56.3913 78.0179 46.8027C77.4681 42.6347 75.8645 38.4904 71.9268 36.4005C69.4459 35.0827 66.6315 34.9212 64.0335 35.258C60.1514 35.7623 57.3351 36.7649 53.0957 36.7649C48.8563 36.7649 46.038 35.7623 42.1539 35.258C39.5579 34.9192 36.7436 35.0827 34.2627 36.4005C30.325 38.4904 28.7213 42.6347 28.1715 46.8027C26.9053 56.4012 29.0984 67.0575 31.4543 78.5154C34.3817 92.8807 37.6109 108.548 34.3817 124.489C32.0596 135.979 31.0593 145.055 31.7639 152.065C32.5062 159.44 35.1141 164.599 40.0045 167.894L40.0124 167.89Z" fill="#56584B"/>
<path d="M13.7707 62.9694C9.58268 63.2978 13.511 55.3237 5.09838 53.0913C3.83282 52.7555 1.04568 52.7223 2.01496 50.3533C2.76844 48.5084 9.48392 49.9843 11.2689 42.8147C11.6346 41.4089 11.3603 39.9476 12.8892 39.2797C16.7151 38.9107 13.3245 46.8811 21.5323 49.0988C22.849 49.4678 25.5155 49.4235 24.7071 51.6817C23.8988 53.94 17.0736 51.94 15.3874 59.593C15.0619 61.069 15.3874 62.3089 13.7597 62.9878L13.7707 62.9694ZM13.1371 55.3422C11.718 57.1023 10.9909 49.7445 9.10353 51.0175C10.8629 52.2943 19.4365 50.5786 17.0059 52.4494C18.117 50.7487 7.28061 52.3469 8.94499 51.1939C6.16516 49.5519 16.577 48.1061 15.0298 46.7223L13.1371 55.3422Z" fill="#7A8B36"/>
<path d="M13.5353 64.005C8.95788 64.3596 13.2515 55.7502 4.05663 53.3399C2.67341 52.9774 -0.37288 52.9415 0.686525 50.3838C1.51006 48.3918 8.84995 49.9854 10.8008 42.2446C11.2006 40.7267 10.9008 39.149 12.5719 38.4279C16.7535 38.0295 13.0476 46.6349 22.0186 49.0293C23.4577 49.4277 26.3721 49.3799 25.4886 51.818C24.6051 54.2562 17.1453 52.0969 15.3023 60.3597C14.9465 61.9532 15.3023 63.2918 13.5233 64.0249L13.5353 64.005ZM13.1355 46.6269C11.5844 48.5273 10.497 49.7265 8.43418 51.1009C10.3571 52.4794 11.8163 53.7781 13.1355 55.7701C14.3499 53.934 15.9098 52.3497 17.729 51.1049C14.6907 49.332 14.8106 48.1249 13.1195 46.6309L13.1355 46.6269Z" fill="#56584B"/>
<path d="M83.5764 33.8272C79.3884 34.1556 83.3167 26.1815 74.9041 23.9491C73.6385 23.6133 70.8514 23.5801 71.8207 21.2111C72.5742 19.3661 79.2896 20.8421 81.0746 13.6725C81.4404 12.2666 81.166 10.8054 82.6949 10.1375C86.5209 9.76853 83.1302 17.7389 91.338 19.9565C92.6548 20.3255 95.3212 20.2813 94.5129 22.5395C93.7045 24.7978 86.8793 22.7978 85.1931 30.4508C84.8676 31.9268 85.1931 33.1666 83.5655 33.8456L83.5764 33.8272ZM82.9429 26.2C81.5237 27.9601 80.7966 20.6023 78.9093 21.8753C80.6686 23.1521 89.2422 21.4364 86.8117 23.3072C87.9228 21.6065 77.0863 23.2047 78.7507 22.0517C75.9709 20.4097 86.3827 18.9639 84.8356 17.5801L82.9429 26.2Z" fill="#7A8B36"/>
<path d="M83.3412 34.8626C78.7638 35.2172 83.0574 26.6079 73.8625 24.1976C72.4793 23.835 69.433 23.7992 70.4924 21.2415C71.316 19.2495 78.6559 20.8431 80.6068 13.1022C81.0065 11.5844 80.7067 10.0067 82.3778 9.28561C86.5594 8.88721 82.8535 17.4926 91.8245 19.8869C93.2637 20.2853 96.178 20.2375 95.2945 22.6757C94.411 25.1139 86.9512 22.9546 85.1082 31.2173C84.7524 32.8109 85.1082 34.1495 83.3292 34.8826L83.3412 34.8626ZM82.9414 17.4846C81.3903 19.385 80.3029 20.5841 78.2401 21.9586C80.163 23.337 81.6222 24.6358 82.9414 26.6278C84.1558 24.7916 85.7157 23.2074 87.5349 21.9626C84.4966 20.1897 84.6165 18.9826 82.9255 17.4886L82.9414 17.4846Z" fill="#56584B"/>
</svg>
