<svg width="93" height="92" viewBox="0 0 93 92" fill="none" xmlns="http://www.w3.org/2000/svg">
<path d="M46.1057 92C71.5108 92 92.1057 71.4051 92.1057 46C92.1057 20.5949 71.5108 0 46.1057 0C20.7006 0 0.105713 20.5949 0.105713 46C0.105713 71.4051 20.7006 92 46.1057 92Z" fill="white"/>
<path d="M46.463 71.6532C33.8246 71.6954 20.6734 60.907 20.6183 43.5852C20.5891 32.1314 26.7687 21.1061 34.6685 14.55C42.3736 8.16911 52.9283 4.0764 62.5028 4.04395C63.7362 4.04395 65.0247 4.14131 65.8134 4.4107C57.4429 6.1471 50.7797 13.9366 50.8089 22.7743C50.8077 23.0253 50.8261 23.276 50.8641 23.5241C64.8721 26.9352 71.2303 35.3868 71.2692 47.0807C71.3082 58.7746 62.0777 71.6013 46.463 71.6532Z" fill="#E60000"/>
</svg>
